<?xml version="1.0" standalone="no"?>
<!DOCTYPE svg PUBLIC "-//W3C//DTD SVG 20010904//EN"
 "http://www.w3.org/TR/2001/REC-SVG-20010904/DTD/svg10.dtd">
<svg version="1.0" xmlns="http://www.w3.org/2000/svg"
 width="132.000000pt" height="132.000000pt" viewBox="0 0 132.000000 132.000000"
 preserveAspectRatio="xMidYMid meet">
<metadata>
Created by potrace 1.14, written by Peter Selinger 2001-2017
</metadata>
<g transform="translate(0.000000,132.000000) scale(0.100000,-0.100000)"
fill="#000000" stroke="none">
<path d="M770 1294 c-129 -35 -252 -115 -363 -234 -337 -362 -399 -894 -118
-1017 49 -21 191 -25 261 -7 163 43 347 185 459 354 20 30 38 57 41 60 11 10
81 150 96 192 36 99 54 178 60 263 13 185 -41 311 -160 372 -64 33 -191 41
-276 17z m158 -58 c36 -19 77 -75 93 -127 17 -59 12 -192 -12 -306 -5 -29 -11
-56 -11 -60 -3 -24 -80 -238 -108 -298 -45 -99 -132 -226 -188 -276 -63 -56
-124 -82 -199 -85 -105 -5 -176 48 -204 150 -48 173 62 587 217 821 57 87 147
166 219 193 41 16 153 9 193 -12z"/>
</g>
</svg>
